<svg width="166" height="70" viewBox="0 0 166 70" fill="none" xmlns="http://www.w3.org/2000/svg">
<g clip-path="url(#clip0_6660_10506)">
<path fill-rule="evenodd" clip-rule="evenodd" d="M30.5838 67.2097C30.3948 67.4701 30.231 67.6959 29.9336 67.9241C29.6042 67.7684 29.3529 67.4258 29.0852 67.0609C28.8933 66.7992 28.6929 66.5261 28.4493 66.3021C25.7699 63.838 21.7872 62.8701 18.0194 61.9544C16.371 61.5538 14.7638 61.1631 13.3248 60.6616C9.03079 59.1676 5.08033 56.8375 3.27686 52.7526C2.7551 51.5697 2.0713 49.6787 1.9044 48.3095C1.55614 45.4783 1.5856 42.3671 1.61465 39.3003C1.62318 38.4004 1.63166 37.5043 1.63056 36.6202L1.64028 12.9628C1.64028 11.8021 1.61627 10.5491 1.59164 9.26367C1.53868 6.50081 1.48287 3.5883 1.65649 1.12109L57.966 1.13892C58.1784 2.35878 58.0956 23.7112 58.06 32.8888C58.0524 34.8414 58.047 36.243 58.047 36.7822C58.047 37.9847 58.0798 39.1748 58.1121 40.3475C58.2792 46.4139 58.4335 52.0143 53.9701 56.4519C52.0403 58.372 49.1917 59.7655 46.3641 60.6713C45.1414 61.0625 43.7423 61.4357 42.2935 61.8223C38.9289 62.7199 35.2956 63.6892 32.9782 65.1209C31.3846 66.106 30.9395 66.7194 30.5838 67.2097ZM2.34472 42.6158L2.34634 3.2408C2.34704 3.0244 2.34207 2.83837 2.3378 2.67848C2.31238 1.72738 2.31168 1.70146 3.67667 1.71117C13.1893 1.77691 22.762 1.75538 32.3387 1.73383C40.7013 1.71502 49.0669 1.6962 57.3984 1.73548L57.3693 43.7501C57.3821 55.345 48.908 57.5906 41.0197 59.6809C39.939 59.9673 38.8694 60.2508 37.8341 60.5549C36.3676 60.9859 34.7894 61.5434 33.5174 62.2288L33.4361 62.2726C32.7457 62.6443 32.2183 62.9283 31.6038 63.4165L30.0968 64.8278C29.532 64.8016 29.5203 64.782 29.4078 64.5931C29.3538 64.5025 29.2765 64.3728 29.1035 64.1846C28.194 63.1957 27.5236 62.8683 26.6753 62.454C26.5533 62.3944 26.4276 62.333 26.297 62.2677C26.0386 62.1376 25.8334 62.025 25.64 61.9188C25.2478 61.7034 24.9044 61.5148 24.2651 61.263C23.5635 60.9876 22.7906 60.7137 21.9852 60.4885C21.1721 60.2604 20.2321 60.0262 19.2651 59.7853C17.6075 59.3723 15.8705 58.9395 14.5575 58.4841L12.195 57.7436C5.25977 54.7248 2.35444 50.5945 2.34472 42.6158Z" fill="#1D513E"/>
<path fill-rule="evenodd" clip-rule="evenodd" d="M31.1454 28.6806C31.4889 29.7241 35.3535 28.6919 36.0778 28.3387C38.2977 27.2563 38.7514 25.8077 39.7172 25.5419C40.4236 29.1797 40.1968 33.8204 39.0771 37.1746C38.4436 39.0704 37.8748 40.1723 37.0079 41.5852C36.4197 42.5461 35.0521 45.0074 33.9697 45.2375C33.9357 44.3739 34.1885 42.9609 33.7331 42.376C33.4285 41.9854 32.3574 41.2563 31.813 41.2449L31.7563 43.9477C30.0322 43.7225 29.5753 41.2822 28.2838 41.1267L28.3665 43.7857C27.7394 43.729 27.5028 43.5361 26.7493 42.5542C26.0753 41.6776 26.2179 41.2125 25.5486 40.9662L25.5794 42.4797C24.685 42.4537 24.5489 42.0389 23.9542 41.4718C23.2591 40.8058 23.2688 40.4947 22.8054 39.8611C22.6595 39.8417 17.7125 40.4023 17.1292 41.01C16.8699 41.279 16.4973 42.3403 16.4648 42.8248C17.7644 42.5769 16.1424 42.397 18.7026 41.8947C19.4301 41.7521 20.7929 41.4669 21.5091 41.5172L23.972 44.0466C24.5165 44.578 24.4452 44.5116 25.4401 44.5278C26.1611 45.7949 28.9206 47.9549 30.0014 47.8674L30.1067 45.6896C30.776 45.7933 32.0253 47.2306 32.0317 47.3148C32.1241 48.4394 25.244 52.3899 24.0125 53.2195C23.413 53.6246 23.0646 53.597 22.935 54.2824C23.4794 54.6276 24.3139 54.5028 25.2359 54.4818C28.4767 54.4137 31.5262 52.85 33.9357 50.9947C34.6778 50.4227 36.2674 49.4456 36.5331 48.6614L34.5935 48.6111C34.7621 48.01 34.6908 48.2628 35.1623 47.8398C35.4523 47.5806 35.5966 47.4526 35.8315 47.2176C36.2885 46.7607 36.6854 46.3135 37.0646 45.8598C37.891 44.8697 38.5213 43.8975 39.1824 42.7843C40.5306 40.5206 41.3748 38.0269 41.8463 35.0551C42.3778 31.7058 42.0392 28.5817 41.8026 25.2778C41.472 20.6679 41.8236 21.2253 39.91 18.072C39.6621 17.6653 39.6799 17.5908 39.0885 17.3979C39.0431 19.9192 38.9086 23.0919 37.3158 25.2098C36.2415 26.6389 34.8625 27.7375 33.166 28.3063C32.6361 28.4829 31.6753 28.4084 31.1454 28.6806Z" fill="#1D513E"/>
<path fill-rule="evenodd" clip-rule="evenodd" d="M85.8458 27.7245C87.5942 25.5839 88.9929 24.918 91.3456 24.5485C103.826 22.5847 105.316 40.0263 94.5537 41.3955C93.0821 41.5825 91.8396 41.381 90.8986 41.2284C90.7713 41.2078 90.6496 41.188 90.5336 41.1703C85.5153 40.668 81.7366 32.7525 85.8458 27.7245ZM86.8942 34.2708C86.238 30.4856 88.0447 27.4798 91.7667 26.6421C95.5097 25.7995 98.3113 28.4391 99.0535 31.8208C99.8928 35.6416 97.3602 38.9828 94.2345 39.4527C90.1982 40.0604 87.4257 37.3381 86.8942 34.2708Z" fill="#1D513E"/>
<path fill-rule="evenodd" clip-rule="evenodd" d="M116.043 41.0828C116.758 41.1638 119.89 41.6143 119.809 40.6712C119.754 40.0198 119.381 40.3471 119.237 39.861L119.214 33.1219L127.914 33.0976L128.001 39.3895C127.893 40.8251 127.413 39.8173 127.296 41.0164L131.117 41.0779C130.98 40.2839 131.119 40.7798 130.719 40.3293C130.074 39.6018 130.336 39.2809 130.338 37.4305L130.377 26.4897C130.552 25.6957 131.012 25.9064 131.077 24.9293L127.39 24.8823C127.559 26.1025 128.317 24.939 127.972 31.1321L119.298 31.2018L119.329 26.2483C119.465 25.4576 119.645 25.6893 119.758 24.9147L116.228 24.8969C116.294 25.8853 116.647 25.5645 116.788 26.5772L116.775 39.6795C116.602 40.3763 116.054 40.2515 116.043 41.0828Z" fill="#1D513E"/>
<path fill-rule="evenodd" clip-rule="evenodd" d="M30.875 55.6047C34.8838 55.5042 39.497 52.3882 42.2046 49.5493C42.4444 49.2982 42.2856 49.5121 42.5125 49.1896C42.7718 48.8202 42.5951 49.1167 42.7993 48.6954L41.6861 48.7213C41.7363 48.2206 42.8965 46.879 43.2174 46.341C46.113 41.4783 47.688 35.6903 46.7773 29.8618C46.5375 28.3241 45.7484 24.2132 44.5169 23.8486L44.7259 31.9213C44.6919 33.0945 44.525 33.5935 44.4294 34.5188C44.1086 37.6493 43.1315 41.2271 41.8012 43.4665C41.2065 44.4711 40.4222 45.8176 39.5326 46.8725C38.5685 48.0148 37.5477 48.9773 36.6565 49.8248L32.1713 53.9324C31.6058 54.4202 30.9414 54.694 30.875 55.6047Z" fill="#1D513E"/>
<path fill-rule="evenodd" clip-rule="evenodd" d="M103.646 24.9359L103.397 27.5803C104.241 27.5528 108.914 24.9942 110.758 27.5754C111.75 28.9641 110.811 30.087 110.025 30.8291C109.165 31.6409 107.036 31.1872 105.672 31.3185L105.623 33.3391C106.613 33.472 109.492 32.7007 110.828 33.8333C114.347 36.8245 109.301 41.5592 104.093 38.7609C103.277 38.3217 103.089 37.6072 102.246 37.6363C102.282 38.0463 102.789 40.2192 102.954 40.4104C104.302 41.9757 115.191 42.6984 114.574 35.6497C114.486 34.6597 114.099 33.6616 113.49 33.1074C112.723 32.4106 112.352 32.3912 111.764 32.093C111.007 31.7106 111.276 31.7592 111.276 31.7592C112.399 31.4579 112.918 30.8048 112.918 30.8048C112.918 30.8048 115.003 28.1134 112.365 25.4949C110.278 23.975 106.415 24.6977 103.646 24.9359Z" fill="#1D513E"/>
<path fill-rule="evenodd" clip-rule="evenodd" d="M74.4807 40.9952C75.1564 41.3225 77.4216 41.188 78.3161 41.0795C78.3517 39.5709 77.4686 41.3906 77.4638 38.4042C77.4622 37.1079 77.4605 35.81 77.4589 34.5137C77.4573 32.647 77.2385 28.4341 77.527 26.8396C78.0892 26.7586 82.0462 26.6663 82.6279 26.8883C83.255 27.1264 82.9714 27.3695 83.8772 27.3841L83.9226 24.9503L74.4531 24.8984C74.5439 26.7311 75.1191 24.0737 75.1256 28.5183L75.1094 39.3878C75.0057 40.6582 74.5277 39.9306 74.4807 40.9952Z" fill="#1D513E"/>
<path fill-rule="evenodd" clip-rule="evenodd" d="M41.3086 52.3039C43.4232 52.4303 47.2797 48.9578 47.7852 47.9629C47.3527 47.8819 47.1907 47.8009 47.0204 47.6388L49.203 43.246C50.9968 39.0638 51.4229 33.6307 50.0148 29.2104L49.4023 27.3988C49.2161 26.9791 49.1351 26.655 48.811 26.0879C48.777 27.9983 49.5579 31.7057 49.0993 34.9238C48.7234 37.5715 47.9343 40.8592 46.8422 43.1407C45.9915 44.9166 46.0174 45.184 44.7648 47.4266C44.5299 47.8479 44.1929 48.206 43.906 48.6629C42.7523 50.4939 41.3345 51.5261 41.3086 52.3039Z" fill="#1D513E"/>
<path fill-rule="evenodd" clip-rule="evenodd" d="M158.429 24.7979C158.395 25.8657 159.298 25.587 158.232 27.1944C157.41 28.434 154.27 32.1673 154.365 32.8932C154.37 32.9305 159.319 39.8932 160.251 40.624C160.753 41.0194 161.1 41.1296 161.994 41.1571H163.939C163.974 41.1441 164.06 41.102 164.101 41.0761C163.924 40.3194 163.733 40.4118 163.14 40.0099C162.738 39.7393 162.48 39.4509 162.153 39.049L158.539 34.5768C158.107 34.0097 157.18 32.9224 156.861 32.2451C156.835 31.9048 160.213 27.6886 160.855 26.8817C161.343 26.2659 162.048 25.9127 161.993 24.7979C161.046 24.7784 159.159 24.7914 158.429 24.7979Z" fill="#1D513E"/>
<path fill-rule="evenodd" clip-rule="evenodd" d="M151.34 30.6249C151.342 32.0135 151.437 39.4445 151.251 39.9776C150.95 40.838 150.655 40.0635 150.677 41.1135C151.609 41.1816 153.73 41.1573 154.54 41.1573C154.54 40.5091 154.459 40.5091 153.889 40.2061L153.832 27.2221C153.831 25.0508 154.54 26.0068 154.621 24.7915C154.392 24.6587 150.959 24.6814 150.651 24.7915C150.49 25.1156 150.791 25.3943 151.019 25.6924C151.628 26.488 151.34 29.523 151.34 30.6249Z" fill="#1D513E"/>
<path fill-rule="evenodd" clip-rule="evenodd" d="M136.145 41.0454L132.578 41.0827C132.688 40.4362 132.725 40.4295 132.836 40.4092C132.968 40.3853 133.203 40.3423 133.787 39.1917L137.737 29.1989C138.028 28.437 138.237 27.9538 138.391 27.5985C138.782 26.6951 138.815 26.6195 138.922 24.8936L142.095 24.9341C143.538 28.1035 145.82 34.0292 147.111 37.4498C147.722 39.0648 148.254 39.7086 148.603 40.1303C148.893 40.4799 149.056 40.6767 149.031 41.1475L145.17 41.1102C145.156 40.5461 145.286 40.4064 145.391 40.2945C145.575 40.0974 145.679 39.9862 144.773 37.7966C144.693 37.6027 144.611 37.3945 144.526 37.1794C144.217 36.395 143.871 35.5189 143.449 34.9123L137.527 34.8977C137.152 35.3968 136.543 37.035 136.284 37.7982C135.551 39.9645 135.623 40.029 135.817 40.2032C135.929 40.3041 136.083 40.4417 136.145 41.0454ZM142.846 33.3631C141.694 33.4717 139.376 33.6013 138.437 33.2886C138.417 33.2448 138.401 33.1865 138.395 33.1525L140.443 27.2349C140.883 27.5055 142.842 32.7895 142.846 33.3631Z" fill="#1D513E"/>
<path fill-rule="evenodd" clip-rule="evenodd" d="M16.9964 12.1316C17.4651 12.2229 17.7734 12.1141 18.1262 11.9897C18.4868 11.8624 18.8939 11.7188 19.5663 11.7557C22.8572 11.9355 22.632 14.755 20.9533 16.7804C18.2083 20.0894 18.16 20.7186 17.9565 23.368C17.915 23.9076 17.8671 24.5309 17.7887 25.2776C14.2834 25.5133 14.3289 24.9022 14.3901 24.0802C14.4379 23.4386 14.4953 22.6685 12.8806 22.0725C12.7551 20.6658 12.6886 18.8891 12.6397 17.5808L12.6295 17.3087L10.429 17.2568C10.3957 17.7467 10.3736 18.2641 10.3514 18.7828L10.3514 18.7828C10.3076 19.8082 10.2636 20.8389 10.1325 21.6739C9.95422 21.7501 9.84379 21.7647 9.682 21.7825C9.45237 21.8078 9.2252 21.7995 9.00503 21.7915C8.66126 21.779 8.33457 21.767 8.04219 21.8846C7.33221 22.0369 6.83987 22.8017 6.75237 22.9621C6.01024 24.3119 6.92737 25.4769 7.66464 26.2499C7.61891 26.4244 7.54953 26.5525 7.48403 26.6735C7.33603 26.9468 7.2078 27.1836 7.41672 27.8362C7.50715 28.1212 7.65816 28.2796 7.80073 28.4292C7.96217 28.5986 8.11279 28.7567 8.15237 29.0742L5.24219 29.1001C5.37182 29.9767 6.58872 31.2536 7.45075 31.7283C8.64983 32.3911 9.55075 32.6698 11.1825 32.7313C10.895 33.1779 10.6708 33.2473 10.3329 33.3518C9.93768 33.4742 9.38686 33.6446 8.39705 34.5235C7.76186 35.089 6.51742 36.395 6.45098 37.2408L9.94774 36.9751C9.87717 37.4944 9.7759 37.8256 9.69939 38.0758C9.52117 38.6586 9.47727 38.8021 10.2686 39.861C10.2257 40.0804 10.1596 40.2083 10.0987 40.3262C10.0009 40.5156 9.91639 40.6793 9.96233 41.1556C10.0047 41.6044 10.1362 41.7274 10.3048 41.8853C10.4071 41.981 10.5232 42.0896 10.6413 42.2915C10.6382 42.5214 10.603 42.7366 10.5695 42.9413C10.4767 43.5074 10.3971 43.9937 11.048 44.4888C11.5141 44.8434 11.9582 44.8561 12.3955 44.8686C12.7274 44.8781 13.0554 44.8874 13.3862 45.0462L13.8739 49.4795C14.4556 49.6642 15.713 49.6675 16.1133 49.3693C16.4289 49.0761 16.2849 48.1243 16.1577 47.283C16.1288 47.0921 16.1008 46.9068 16.0792 46.7362C16.0213 46.2765 15.981 45.8453 15.9408 45.416L15.9408 45.4159L15.9408 45.4158C15.8922 44.8963 15.8438 44.3795 15.7649 43.8179C15.2963 43.7836 14.8231 43.8768 14.3618 43.9676C13.4926 44.1386 12.6659 44.3013 11.9927 43.5878C11.8593 42.7776 11.9307 42.686 12.0556 42.5257C12.1325 42.427 12.2297 42.3022 12.3119 41.9675C12.1161 41.7101 11.9354 41.532 11.789 41.3876C11.469 41.0719 11.3127 40.9177 11.5195 40.4508C11.642 40.1751 11.6759 40.1879 11.715 40.2026C11.7586 40.219 11.8087 40.2379 11.9959 39.861C11.7607 39.5263 11.6066 39.4376 11.3805 39.3073L11.3804 39.3072C11.2934 39.2571 11.1958 39.2009 11.0788 39.1221C11.0577 38.0008 11.2311 37.7464 12.2843 37.6103C13.0767 37.5098 14.1477 37.4725 14.9401 37.5325C16.0664 39.299 16.746 39.1566 18.9984 38.6849C19.6365 38.5513 20.4008 38.3912 21.3373 38.2406C23.2915 37.9279 26.7218 37.2473 28.0926 36.4193L28.2093 34.3452C27.7795 34.4303 27.4919 34.6263 27.187 34.8341C26.9172 35.018 26.6337 35.2111 26.226 35.345C26.0546 35.4014 25.8828 35.4666 25.71 35.5321C25.1378 35.7492 24.5548 35.9703 23.9413 35.8894C23.3531 34.6969 21.0165 29.826 21.0343 28.5346C21.1672 28.6395 21.299 28.7471 21.4324 28.8561C22.1026 29.4034 22.8151 29.9853 23.9218 30.4353C23.5175 29.8051 23.2705 29.3262 23.0604 28.9188L23.0603 28.9187C22.9014 28.6107 22.7636 28.3434 22.5947 28.0825C20.767 25.2744 20.438 22.1212 21.8623 19.1397C22.0752 18.6948 22.3312 18.2947 22.585 17.8981C23.3454 16.7099 24.0857 15.553 23.5864 13.3177C23.016 10.7649 20.8344 10.8741 19.3388 10.949C18.9396 10.969 18.5893 10.9865 18.3315 10.9503C18.2084 9.50172 18.9975 8.51815 20.5385 8.70774C20.9534 8.75979 21.1571 8.92772 21.3444 9.08217C21.5477 9.24983 21.7318 9.4016 22.1459 9.37209C22.702 9.33218 22.9204 8.86528 23.1126 8.45429C23.1702 8.33121 23.2254 8.21314 23.2866 8.11306C23.9153 8.05473 28.7424 7.87648 29.3209 8.26375L28.488 8.52625C28.4485 9.25669 28.5923 9.68198 28.7552 10.164C28.8463 10.4337 28.9435 10.7211 29.0179 11.0897C29.3468 12.7182 29.3112 15.2378 28.6387 16.6735C28.2988 17.398 27.9764 17.6137 27.6874 17.8071C27.4943 17.9363 27.3161 18.0556 27.1577 18.31C27.3878 19.1008 33.132 22.8066 35.1947 21.4665C37.1891 20.1724 36.7113 15.8738 36.4002 13.0748C36.3233 12.3831 36.2566 11.783 36.2399 11.3425C36.1815 9.83551 36.2188 8.95727 37.8764 9.04801C41.5174 9.24894 46.8727 14.426 49.1558 17.5598C50.8021 19.8186 53.3866 25.8691 53.3348 29.3966C53.2697 29.4096 53.1077 29.2475 52.9589 28.9996L52.3771 27.4635C52.16 26.9628 51.5683 26.0878 51.1359 25.7135C51.3253 26.5739 51.4892 27.2756 51.6998 27.9788C52.8001 31.6603 52.7304 36.348 51.6464 40.1624C51.4734 40.7684 51.4123 41.1052 51.3613 41.387C51.2765 41.8548 51.2193 42.1709 50.7227 43.3156C50.6589 43.4629 50.6117 43.5552 50.5779 43.6213C50.4941 43.7849 50.4927 43.7877 50.5251 44.0658C50.5411 44.203 50.5433 44.2691 50.5445 44.3028C50.5453 44.326 50.5456 44.334 50.5494 44.3394C50.5514 44.3422 50.5544 44.3443 50.559 44.3475C50.5742 44.358 50.6065 44.3806 50.6774 44.4807C51.3241 44.0273 51.7983 42.917 52.2104 41.9522C52.3786 41.5583 52.5365 41.1888 52.6915 40.898C54.2422 37.9781 55.3862 30.2992 54.6035 26.3536C54.0672 23.6475 53.2635 20.4668 51.7517 18.2161L50.6758 16.5406C48.2387 12.6679 44.1683 9.49037 39.9051 7.87648C36.397 6.5494 33.4658 8.22486 33.4593 11.8269C33.4586 12.2986 33.5092 12.9605 33.5659 13.7027C33.7788 16.4895 34.0781 20.408 32.0755 19.6339C31.5233 19.4196 31.454 18.301 31.3642 16.8507C31.3046 15.8881 31.2359 14.7793 31.0109 13.692L30.1165 8.91352C30.1974 8.87031 30.2715 8.8309 30.3393 8.79482C30.8873 8.50331 31.0271 8.42893 31.0731 8.31623C31.0889 8.27762 31.0937 8.23452 31.1001 8.17666C31.1067 8.11706 31.1151 8.04181 31.1389 7.93968L30.2202 7.45843C29.7397 7.26076 29.5795 7.14924 29.4569 7.0639C29.2177 6.89741 29.1217 6.8306 27.0702 6.41815C22.2591 5.45031 21.4016 6.53961 20.8544 7.23467C20.7401 7.37979 20.6394 7.50772 20.519 7.59616C20.4345 7.65884 20.2109 7.72131 19.9115 7.80498C18.5701 8.17981 15.7061 8.98013 16.9964 12.1316ZM12.2923 26.3584L12.4673 27.8135C11.2177 27.994 10.5631 27.4537 10.0263 27.0106C9.50791 26.5828 9.09942 26.2456 8.37103 26.736C8.16525 27.1119 8.0664 27.7665 8.49742 28.1052C8.83652 28.3713 9.34791 28.2665 9.83467 28.1667C9.99686 28.1334 10.1563 28.1007 10.3058 28.0825L10.2928 29.0531L18.0268 29.1049C17.9458 30.1971 16.212 31.4755 15.2349 31.9584C15.0064 32.0717 14.8127 32.137 14.6327 32.1978C14.3697 32.2865 14.136 32.3654 13.8657 32.5693C13.9448 32.6189 13.9345 32.6333 13.9296 32.6402C13.9287 32.6415 13.9279 32.6425 13.928 32.6435C13.9284 32.6472 13.9412 32.6497 14.0036 32.6619C14.0513 32.6713 14.1278 32.6863 14.2497 32.7119C14.5161 32.7676 14.6734 32.7715 14.8223 32.7752C15.0456 32.7807 15.2502 32.7858 15.7761 32.9647C17.0044 33.386 19.5921 34.4327 19.6132 35.9867L16.6819 36.2135C16.5558 36.2344 16.4609 36.248 16.3885 36.2584C16.2387 36.2799 16.1852 36.2876 16.1514 36.3175C16.1326 36.3341 16.1198 36.3575 16.1 36.394C16.0738 36.442 16.0353 36.5127 15.9544 36.6202C16.1715 37.0934 16.3805 37.2392 16.972 37.2797C17.4399 37.313 17.9447 37.2289 18.4003 37.1529L18.4951 37.1371C19.4544 36.9783 20.4703 36.792 21.2449 36.5279L19.2324 30.9214C18.8337 29.6677 18.6187 28.7838 18.4675 28.162C18.2752 27.3716 18.1859 27.0047 17.9534 26.84C17.7521 26.6974 17.4432 26.7065 16.8667 26.7235C16.5916 26.7316 16.2554 26.7415 15.8409 26.7376C15.6323 26.7356 15.435 26.739 15.2489 26.7422H15.2488C14.1841 26.7602 13.483 26.7721 13.1106 25.7556C12.9986 25.4503 12.9392 25.1525 12.8842 24.8769C12.7355 24.1316 12.6193 23.5493 11.5842 23.4239C10.5148 23.2927 9.79372 24.3232 9.93145 25.4413C9.98816 25.9079 10.5618 26.8883 11.5113 26.629C11.8136 26.5465 11.8183 26.5039 11.8218 26.472C11.8259 26.435 11.8285 26.4124 12.2923 26.3584ZM9.74487 22.737C9.98218 22.7956 10.2025 22.9086 10.3883 23.0672L9.7778 23.5949L9.43829 24.0704L9.25813 24.632L9.13847 25.8276C8.8964 25.7932 8.66576 25.703 8.4648 25.564C8.26383 25.4251 8.09805 25.2413 7.98056 25.0271C7.86306 24.813 7.79707 24.5743 7.78781 24.33C7.77855 24.0858 7.82627 23.8426 7.92719 23.6197C8.02812 23.3968 8.17948 23.2003 8.36932 23.0458C8.55916 22.8912 8.78227 22.7829 9.021 22.7293C9.25974 22.6757 9.50756 22.6783 9.74487 22.737Z" fill="#1D513E"/>
</g>
<defs>
<clipPath id="clip0_6660_10506">
<rect width="165.44" height="70" fill="white" transform="translate(0.28125)"/>
</clipPath>
</defs>
</svg>
