<svg width="147" height="60" viewBox="0 0 147 60" fill="none" xmlns="http://www.w3.org/2000/svg">
<g clip-path="url(#clip0_6876_2794)">
<path d="M46.125 36.58C46.1718 37.5792 45.9988 38.5765 45.6181 39.5015C45.2374 40.4265 44.6583 41.2566 43.9217 41.9334C42.2656 43.3448 40.1333 44.0709 37.96 43.9634H30.9933V53.1967H27.845V29.45H37.8283C40.0436 29.312 42.2347 29.9751 44.0017 31.3184C44.7408 31.9726 45.3222 32.7857 45.7023 33.6967C46.0825 34.6076 46.2515 35.5928 46.1967 36.5784L46.125 36.58ZM42.895 36.58C42.895 33.52 41.0533 31.99 37.3717 31.99H30.9933V41.3434H37.5133C41.1017 41.3434 42.8967 39.7567 42.8967 36.58H42.895ZM51.42 53.1467V29.4534H69.415V32.1234H54.6283V39.72H68.4V42.28H54.6283V50.5367H70.105V53.1567H51.42V53.1467ZM92.2433 50.4017H95.1883V59.9484H92.1417V53.145H75.7617V59.9984H72.715V50.4017H75.1417C76.1603 49.0301 76.9148 47.481 77.3667 45.8334C78.105 43.2667 78.625 40.64 78.92 37.9834L80.0467 29.4117H92.2333V50.4034H92.2433V50.4017ZM89.1167 50.4017V32.1217H82.8L81.9767 38.3067C81.6626 40.837 81.2012 43.3468 80.595 45.8234C80.221 47.4415 79.6087 48.9951 78.7783 50.4334H89.1167V50.4017ZM23.6217 1.66669H0V25.2884H23.6217V1.66669ZM23.6217 29.4534H0V53.075H23.6217V29.4534ZM51.4283 1.66669H27.8067V25.2884H51.4283V1.66669Z" fill="#CC2B24"/>
<path d="M136.513 32.01C135.394 31.9479 134.275 32.1384 133.239 32.5674C132.203 32.9964 131.277 33.6529 130.53 34.4884C129.009 36.4067 128.246 38.8176 128.388 41.2617C128.266 43.737 129.053 46.1716 130.601 48.1067C131.349 48.9615 132.28 49.6371 133.324 50.0837C134.369 50.5303 135.5 50.7364 136.635 50.6867C139.878 50.6867 142.315 49.085 143.946 45.8817L146.505 47.1617C145.638 49.0516 144.223 50.637 142.443 51.7117C140.644 52.7555 138.593 53.2858 136.513 53.245C134.391 53.3034 132.291 52.8064 130.42 51.8034C128.735 50.8416 127.379 49.3941 126.53 47.65C125.601 45.6477 125.146 43.4583 125.2 41.2517C125.2 37.5617 126.198 34.675 128.195 32.5884C130.193 30.505 132.951 29.4584 136.471 29.4517C138.621 29.3755 140.752 29.8731 142.646 30.8934C144.311 31.8688 145.596 33.3792 146.293 35.1784L143.316 36.195C142.818 34.9155 141.902 33.8419 140.716 33.1484C139.447 32.3896 137.992 31.9957 136.513 32.01ZM122.17 41.2634C122.217 43.4604 121.737 45.6369 120.77 47.61C119.896 49.3756 118.507 50.8344 116.786 51.7934C114.916 52.799 112.816 53.3032 110.693 53.2567C108.549 53.3138 106.426 52.8173 104.53 51.815C102.821 50.8637 101.445 49.4104 100.59 47.6517C99.6461 45.6568 99.18 43.4696 99.228 41.2634C99.228 37.5667 100.245 34.68 102.275 32.6017C104.306 30.5217 107.125 29.4767 110.735 29.4634C112.852 29.4162 114.947 29.9016 116.828 30.875C118.539 31.7831 119.924 33.2032 120.788 34.9367C121.75 36.9006 122.224 39.0674 122.17 41.2534V41.2634ZM118.96 41.2634C119.1 38.8145 118.326 36.4009 116.788 34.49C116.018 33.6542 115.072 33 114.018 32.5748C112.964 32.1497 111.829 31.9641 110.695 32.0317C109.555 31.9626 108.414 32.1443 107.353 32.5638C106.291 32.9834 105.334 33.6307 104.55 34.46C102.999 36.3797 102.224 38.8104 102.376 41.2734C102.243 43.7642 103.019 46.2187 104.56 48.18C106.182 49.7944 108.374 50.7074 110.662 50.7223C112.951 50.7373 115.154 49.8531 116.798 48.26C118.343 46.2713 119.108 43.7867 118.95 41.2734L118.96 41.2634Z" fill="#2E363E"/>
</g>
<defs>
<clipPath id="clip0_6876_2794">
<rect width="146.667" height="60" fill="white"/>
</clipPath>
</defs>
</svg>
